<?xml version="1.0" encoding="UTF-8" standalone="no"?>
<!-- Created with Inkscape (http://www.inkscape.org/) -->

<svg
   width="170.17038mm"
   height="170.17033mm"
   viewBox="0 0 170.17038 170.17033"
   version="1.1"
   id="svg960"
   inkscape:version="1.1 (c68e22c387, 2021-05-23)"
   sodipodi:docname="icone.svg"
   inkscape:export-filename="C:\Users\mstra\OneDrive - Grupo Marista\Fractal\logo\símbolo_para_fundo_escuro.png"
   inkscape:export-xdpi="149.26218"
   inkscape:export-ydpi="149.26218"
   xmlns:inkscape="http://www.inkscape.org/namespaces/inkscape"
   xmlns:sodipodi="http://sodipodi.sourceforge.net/DTD/sodipodi-0.dtd"
   xmlns="http://www.w3.org/2000/svg"
   xmlns:svg="http://www.w3.org/2000/svg">
  <sodipodi:namedview
     id="namedview962"
     pagecolor="#ffffff"
     bordercolor="#666666"
     borderopacity="1.0"
     inkscape:pageshadow="2"
     inkscape:pageopacity="0.0"
     inkscape:pagecheckerboard="0"
     inkscape:document-units="mm"
     showgrid="false"
     inkscape:snap-page="true"
     inkscape:snap-bbox="true"
     inkscape:bbox-paths="true"
     inkscape:bbox-nodes="true"
     inkscape:snap-bbox-edge-midpoints="true"
     inkscape:snap-bbox-midpoints="true"
     inkscape:zoom="0.43843001"
     inkscape:cx="38.774718"
     inkscape:cy="329.5851"
     inkscape:current-layer="layer2" />
  <defs
     id="defs957" />
  <g
     inkscape:label="Layer 1"
     inkscape:groupmode="layer"
     id="layer1"
     transform="translate(-19.914809,-63.414829)">
    <ellipse
       style="fill:#141414;fill-opacity:1;stroke:none;stroke-width:0.765;stroke-linecap:round;stroke-linejoin:round;stroke-opacity:1"
       id="path1060"
       cx="105"
       cy="148.5"
       rx="85.08519"
       ry="85.085167" />
  </g>
  <g
     inkscape:groupmode="layer"
     id="layer2"
     inkscape:label="Layer 2">
    <path
       id="path12807"
       style="color:#000000;display:inline;fill:#00b5bb;fill-opacity:1;stroke:none;stroke-width:1;stroke-linecap:round;stroke-linejoin:round;stroke-opacity:1;-inkscape-stroke:none"
       d="M 85.07991,4.0688477e-6 C 38.113814,4.0688477e-6 2e-6,38.122224 2e-6,85.088324 c 0,46.966126 38.113812,85.082016 85.079908,85.082016 46.96612,0 85.09047,-38.11589 85.09047,-85.082016 C 170.17038,38.122224 132.04603,4.0688477e-6 85.07991,4.0688477e-6 Z M 105.60019,6.9382941 c 28.13896,7.3596499 50.27559,29.4999599 57.63187,57.6402999 -6.95386,-12.6814 -20.14633,-21.4715 -35.42804,-22.21435 -0.7427,-15.27865 -9.52651,-28.47097 -22.20383,-35.4259499 z m -41.03845,0.002 C 51.8848,13.895324 43.10061,27.085714 42.357925,42.364094 27.075338,43.106244 13.88407,51.896464 6.929883,64.578434 14.286118,36.438284 36.423042,14.300044 64.56174,6.9402541 Z m 20.51817,0.75761 c 9.58471,0 17.30893,7.7221099 17.30893,17.3068099 0,9.58469 -7.72422,17.30891 -17.30893,17.30891 -9.58469,0 -17.30681,-7.72422 -17.30681,-17.30891 0,-9.5847 7.72212,-17.3068099 17.30681,-17.3068099 z m -14.15438,0.98693 c -4.56776,3.9676799 -7.4623,9.8134699 -7.4623,16.3198299 0,8.5481 4.99516,15.95892 12.21832,19.46385 -2.68401,1.30239 -5.05984,3.14423 -6.98671,5.38314 -6.32306,-4.36076 -13.87291,-7.06659 -22.02073,-7.48335 0.82319,-15.35584 10.61977,-28.29761 24.25142,-33.6834699 z m 28.31088,0 c 13.63078,5.3862799 23.4283,18.3282199 24.25143,33.6834699 -8.14745,0.41674 -15.69787,3.12295 -22.02074,7.48335 -1.9269,-2.23899 -4.30263,-4.08073 -6.98671,-5.38314 7.22315,-3.50493 12.21833,-10.91575 12.21833,-19.46385 0,-6.50636 -2.89455,-12.35215 -7.46231,-16.3198299 z M 85.07991,46.623394 c 5.1786,0 9.81303,2.25534 12.98012,5.8398 -5.93488,5.03505 -10.4821,11.65722 -12.98012,19.20711 -2.49792,-7.54953 -7.0435,-14.17218 -12.978,-19.20711 3.16706,-3.58387 7.79992,-5.8398 12.978,-5.8398 z m -42.717773,0.0568 c 0.416356,8.14763 3.123163,15.69549 7.483343,22.01862 -2.23929,1.92663 -4.08035,4.30489 -5.383122,6.98882 -3.505279,-7.22224 -10.916436,-12.21831 -19.463856,-12.21831 -6.5042,0 -12.350109,2.89295 -16.317734,7.45808 5.387359,-13.62857 18.32766,-23.42429 33.681369,-24.24721 z m 85.437673,0 c 15.35361,0.82302 28.29404,10.61872 33.68136,24.24721 -3.96762,-4.56513 -9.81352,-7.45808 -16.3177,-7.45808 -8.54712,0 -15.95633,4.99652 -19.46178,12.21831 -1.30258,-2.68379 -3.14626,-5.06007 -5.38523,-6.98671 4.36077,-6.32342 7.06695,-13.87249 7.48335,-22.02073 z m -81.11939,0.009 c 7.23688,0.41035 13.93285,2.81486 19.55014,6.67314 -1.69151,3.00322 -2.68679,6.44857 -2.76311,10.11388 -3.66532,0.0764 -7.10858,1.07155 -10.11179,2.76312 -3.85905,-5.6177 -6.26484,-12.31242 -6.67524,-19.55014 z m 76.79899,0 c -0.4104,7.23757 -2.81421,13.93251 -6.67312,19.55014 -3.00322,-1.69157 -6.44649,-2.68673 -10.1118,-2.76312 -0.0763,-3.66545 -1.07358,-7.11058 -2.76522,-10.11388 5.61695,-3.85828 12.31366,-6.26241 19.55014,-6.67314 z m -53.806,9.331 c 4.62586,4.01426 8.28065,9.11707 10.57053,14.91196 -3.16627,-3.64508 -7.52879,-6.2239 -12.46873,-7.11717 0.0184,-2.81056 0.7001,-5.45804 1.8982,-7.79479 z m 30.81512,0 c 1.1981,2.33675 1.87984,4.98423 1.8982,7.79479 -4.93793,0.89291 -9.30067,3.47023 -12.46663,7.11296 2.29,-5.79307 5.94374,-10.8945 10.56843,-14.90775 z m -75.490028,11.76157 c 9.584693,0 17.306811,7.72212 17.306811,17.3068 0,9.58471 -7.722118,17.306816 -17.306811,17.306816 -9.584696,0 -17.306818,-7.722106 -17.306818,-17.306816 0,-9.58468 7.722122,-17.3068 17.306818,-17.3068 z m 120.164968,0 c 9.58467,0 17.3068,7.72212 17.3068,17.3068 0,9.58471 -7.72213,17.306816 -17.3068,17.306816 -9.58471,0 -17.30684,-7.722106 -17.30684,-17.306816 0,-9.58468 7.72213,-17.3068 17.30684,-17.3068 z m -81.35722,0.002 c 0.89303,4.9384 3.47177,9.3006 7.11508,12.46663 -5.7941,-2.28994 -10.89395,-5.94519 -14.90777,-10.57055 2.33591,-1.19734 4.98339,-1.87748 7.79269,-1.89608 z m 42.54732,0 c 2.81073,0.0184 5.45793,0.69795 7.79481,1.89608 -4.01326,4.62469 -9.11468,8.27845 -14.90777,10.56844 3.64276,-3.16594 6.22004,-7.5266 7.11296,-12.46452 z m -38.01648,0.56188 c 6.02618,1.57497 10.75473,6.30161 12.32984,12.32774 -6.02594,-1.57511 -10.75477,-6.30177 -12.32984,-12.32774 z m 33.48566,0 c -1.5751,6.0259 -6.30182,10.75263 -12.32774,12.32774 1.57508,-6.02602 6.30173,-10.75266 12.32774,-12.32774 z m -49.36567,3.76272 c 5.03535,5.93522 11.65666,10.48218 19.20711,12.98011 -7.55045,2.49793 -14.17176,7.04486 -19.20711,12.98009 -3.58475,-3.16707 -5.83979,-7.80128 -5.83979,-12.98009 0,-5.17884 2.25504,-9.81303 5.83979,-12.98011 z m 65.24777,0 c 3.58475,3.16708 5.83981,7.80127 5.83981,12.98011 0,5.17881 -2.25506,9.81302 -5.83981,12.98009 -5.03533,-5.93523 -11.65665,-10.48216 -19.2071,-12.98009 7.55045,-2.49793 14.17177,-7.04489 19.2071,-12.98011 z m -37.03582,17.38677 c -1.57332,6.02938 -6.3035,10.760586 -12.33194,12.336166 1.57515,-6.028306 6.30488,-10.760126 12.33194,-12.336166 z m 8.82387,0 c 6.02703,1.57604 10.75467,6.30794 12.32985,12.336166 C 95.79448,100.25561 91.0662,95.524404 89.4929,89.495134 Z m -18.56737,0.42933 c -3.64511,3.16627 -6.22598,7.52876 -7.11928,12.468696 -2.8093,-0.0181 -5.45678,-0.69876 -7.79269,-1.89606 4.01468,-4.626346 9.11636,-8.282776 14.91197,-10.572636 z m 28.31088,0 c 5.7949,2.28987 10.89768,5.94675 14.91197,10.572636 -2.33688,1.19812 -4.98408,1.87781 -7.79481,1.89606 -0.89329,-4.939936 -3.47206,-9.302456 -7.11716,-12.468696 z m -54.774052,4.56451 c 1.302772,2.68391 3.143832,5.06217 5.383122,6.988786 -4.36018,6.32314 -7.066987,13.87099 -7.483343,22.01861 -15.353709,-0.82293 -28.29401,-10.61865 -33.681369,-24.247206 3.967625,4.565156 9.813534,7.458086 16.317734,7.458086 8.54742,0 15.958577,-4.99606 19.463856,-12.218276 z m 81.239332,0 c 3.50545,7.221746 10.91466,12.218276 19.46178,12.218276 6.50418,0 12.35008,-2.89293 16.3177,-7.458086 -5.38732,13.628526 -18.32775,23.424186 -33.68136,24.247206 -0.4164,-8.14824 -3.12258,-15.69731 -7.48335,-22.0207 2.23897,-1.926666 4.08265,-4.302936 5.38523,-6.986696 z m -40.62178,4.01734 c 2.49852,7.550166 7.04588,14.171136 12.98222,19.205016 -3.16713,3.58575 -7.80255,5.84184 -12.98222,5.84184 -5.17966,0 -9.81507,-2.25609 -12.9822,-5.84184 5.93656,-5.0339 10.48361,-11.6547 12.9822,-19.205016 z m -4.83597,0.73864 c -2.28988,5.794916 -5.94467,10.897706 -10.57053,14.911956 -1.19788,-2.3363 -1.8796,-4.98481 -1.8982,-7.79479 4.93996,-0.89325 9.30246,-3.47208 12.46873,-7.117166 z m 9.67616,0.002 c 3.16597,3.642756 7.52868,6.220066 12.46663,7.112966 -0.0186,2.81 -0.70031,5.45847 -1.8982,7.79479 -4.62469,-4.01323 -8.27843,-9.11465 -10.56843,-14.907756 z m -36.56654,4.688656 c 3.00348,1.69201 6.44806,2.68674 10.11389,2.76315 0.0764,3.66555 1.07133,7.11052 2.76311,10.11387 -5.61729,3.8583 -12.31326,6.26278 -19.55014,6.67314 0.41035,-7.2369 2.81487,-13.93285 6.67314,-19.55016 z m 63.45273,0 c 3.85853,5.61742 6.26274,12.31301 6.67312,19.55016 -7.23648,-0.41073 -13.93319,-2.81484 -19.55014,-6.67314 1.69191,-3.00342 2.68883,-6.44817 2.76522,-10.11387 3.66518,-0.0766 7.10868,-1.07169 10.1118,-2.76315 z M 6.927776,105.59319 c 6.95406,12.68023 20.147199,21.46616 35.430149,22.20805 0.739853,15.28097 9.523325,28.4716 22.201715,35.42594 C 36.420997,155.86924 14.283191,133.73357 6.927776,105.5943 Z m 156.306394,0 c -7.35559,28.1399 -29.49439,50.27544 -57.63398,57.63399 12.67913,-6.95415 21.46394,-20.14442 22.20383,-35.42594 15.28207,-0.74256 28.47641,-9.52842 35.43015,-22.20805 z m -94.54353,14.7247 c 1.92756,2.24094 4.30509,4.08405 6.99091,5.38731 -7.22316,3.50495 -12.21832,10.91366 -12.21832,19.4618 0,6.50472 2.89231,12.35214 7.4581,16.31977 -13.63227,-5.38771 -23.42938,-18.33155 -24.24932,-33.68976 8.14697,-0.41617 15.6958,-3.1209 22.01863,-7.47912 z m 32.78066,0 c 6.3221,4.35749 13.87072,7.06266 22.01654,7.47914 -0.81991,15.35728 -10.61624,28.29935 -24.24723,33.68766 4.56518,-3.96767 7.45811,-9.81349 7.45811,-16.31769 0,-8.54813 -4.99518,-15.95685 -12.21833,-19.4618 2.68588,-1.3033 5.06333,-3.1463 6.99091,-5.38731 z m -16.39139,7.54225 c 9.58471,0 17.30893,7.72216 17.30893,17.30686 0,9.58465 -7.72422,17.30889 -17.30893,17.30889 -9.58469,0 -17.30681,-7.72424 -17.30681,-17.30889 0,-9.5847 7.72212,-17.30686 17.30681,-17.30686 z" />
  </g>
</svg>
